<svg width="86" height="32" viewBox="0 0 86 32" fill="none" xmlns="http://www.w3.org/2000/svg">
<g id="Logo">
<path id="Vector" d="M29.6477 23.1408V26H10.75V6H13.5778V23.1408H29.6477ZM49.5653 23.1408V26H31.2057V20.2816C31.2057 19.5009 31.3549 18.764 31.6535 18.0708C31.9529 17.3787 32.3578 16.7745 32.8682 16.2585C33.3786 15.7425 33.9761 15.333 34.6607 15.0303C35.3462 14.7285 36.0797 14.5775 36.8613 14.5775H43.9238C44.3098 14.5775 44.6752 14.5033 45.0199 14.3548C45.3655 14.2053 45.6644 14.0006 45.9168 13.7406C46.1701 13.4807 46.3726 13.176 46.5242 12.8266C46.6758 12.4781 46.7516 12.1087 46.7516 11.7184C46.7516 11.328 46.6758 10.9586 46.5242 10.6101C46.3726 10.2607 46.1701 9.95601 45.9168 9.69609C45.6644 9.43616 45.3655 9.23146 45.0199 9.08198C44.6752 8.93345 44.3098 8.85918 43.9238 8.85918H32.6267V6H43.9238C44.6959 6 45.4248 6.15091 46.1103 6.45273C46.7949 6.7555 47.3924 7.1649 47.9028 7.68095C48.4131 8.19699 48.8181 8.80348 49.1175 9.50043C49.416 10.1983 49.5653 10.9376 49.5653 11.7184C49.5653 12.4991 49.416 13.2384 49.1175 13.9363C48.8181 14.6332 48.4131 15.2397 47.9028 15.7558C47.3924 16.2718 46.7949 16.6812 46.1103 16.984C45.4248 17.2858 44.6959 17.4367 43.9238 17.4367H36.8613C36.4752 17.4367 36.1075 17.511 35.7582 17.6595C35.4088 17.8081 35.1051 18.0128 34.8471 18.2736C34.59 18.5336 34.3857 18.8359 34.2341 19.1805C34.0825 19.5242 34.0067 19.8913 34.0067 20.2816V23.1408H49.5653ZM75.25 20.2816C75.25 21.0814 75.1026 21.8274 74.8079 22.5196C74.5141 23.2127 74.112 23.8173 73.6016 24.3333C73.0912 24.8494 72.4933 25.2559 71.8078 25.553C71.1232 25.851 70.3901 26 69.6085 26H52.4213V23.1408H69.6085C70.004 23.1408 70.3717 23.0666 70.7117 22.918C71.0516 22.7695 71.3482 22.5648 71.6015 22.3039C71.8539 22.044 72.054 21.7393 72.2018 21.3899C72.3487 21.0414 72.4222 20.672 72.4222 20.2816C72.4222 19.8913 72.3487 19.5242 72.2018 19.1805C72.054 18.8359 71.8539 18.5336 71.6015 18.2736C71.3482 18.0128 71.0516 17.8081 70.7117 17.6595C70.3717 17.511 70.004 17.4367 69.6085 17.4367H58.0769C57.3038 17.4367 56.5726 17.2877 55.8833 16.9897C55.1931 16.6927 54.5928 16.2861 54.0824 15.7701C53.572 15.254 53.1676 14.6471 52.8691 13.9492C52.5706 13.2522 52.4213 12.5086 52.4213 11.7184C52.4213 10.9376 52.5706 10.1983 52.8691 9.50043C53.1676 8.80348 53.572 8.19699 54.0824 7.68095C54.5928 7.1649 55.1931 6.7555 55.8833 6.45273C56.5726 6.15091 57.3038 6 58.0769 6H73.8432V8.85918H58.0769C57.6899 8.85918 57.3241 8.93345 56.9794 9.08198C56.6348 9.23146 56.3339 9.43616 56.0768 9.69609C55.8188 9.95601 55.6164 10.2607 55.4695 10.6101C55.3226 10.9586 55.2491 11.328 55.2491 11.7184C55.2491 12.1087 55.3226 12.4781 55.4695 12.8266C55.6164 13.176 55.8188 13.4807 56.0768 13.7406C56.3339 14.0006 56.6348 14.2053 56.9794 14.3548C57.3241 14.5033 57.6899 14.5775 58.0769 14.5775H69.6085C70.3901 14.5775 71.1232 14.7285 71.8078 15.0303C72.4933 15.333 73.0912 15.7425 73.6016 16.2585C74.112 16.7745 74.5141 17.3787 74.8079 18.0708C75.1026 18.764 75.25 19.5009 75.25 20.2816Z" fill="#1A73E8"/>
</g>
</svg>
